<?xml version="1.0" standalone="no"?>
<!DOCTYPE svg PUBLIC "-//W3C//DTD SVG 20010904//EN"
 "http://www.w3.org/TR/2001/REC-SVG-20010904/DTD/svg10.dtd">
<svg version="1.0" xmlns="http://www.w3.org/2000/svg"
 width="230.000000pt" height="200.000000pt" viewBox="0 0 230.000000 200.000000"
 preserveAspectRatio="xMidYMid meet">

<g transform="translate(0.000000,200.000000) scale(0.100000,-0.100000)"
fill="#000000" stroke="none">
<path d="M0 945 l0 -945 1000 0 1000 0 0 945 0 945 -1000 0 -1000 0 0 -945z
m370 920 c-46 -18 -50 -18 -50 0 0 11 11 15 43 14 l42 -1 -35 -13z m1550 -43
c0 -47 6 -70 33 -118 l32 -59 0 -660 0 -660 -28 -48 c-28 -47 -48 -66 -26 -24
6 12 -9 1 -34 -24 -26 -26 -68 -57 -94 -70 l-48 -24 -650 0 -650 0 -46 23
c-54 26 -108 76 -147 135 -27 40 -27 41 -28 241 0 111 1 170 3 132 4 -62 5
-67 18 -50 14 18 14 18 15 -1 0 -17 2 -17 10 -5 6 9 10 10 10 3 0 -6 -4 -15
-10 -18 -6 -3 -10 -11 -10 -16 0 -6 4 -8 9 -5 5 4 11 1 13 -4 2 -6 12 -3 24 7
22 20 49 29 39 14 -7 -12 34 -24 66 -19 13 2 24 10 25 18 3 43 4 46 15 27 5
-9 7 -22 4 -27 -3 -6 1 -10 10 -10 21 0 72 -28 98 -54 19 -18 20 -18 34 -1 7
11 13 13 13 6 0 -7 5 -9 11 -5 8 4 9 -3 4 -25 -5 -24 -3 -31 9 -31 8 0 17 4
20 9 4 5 24 0 46 -10 23 -11 38 -24 35 -28 -5 -9 27 -21 59 -21 16 0 16 2 -5
21 l-24 20 25 -15 c36 -21 174 -66 204 -66 14 0 26 -3 26 -7 0 -12 128 -7 180
6 105 26 166 45 180 56 27 22 63 38 55 25 -10 -17 27 -8 43 10 8 8 11 9 7 3
-3 -7 -1 -13 4 -13 6 0 11 4 11 10 0 5 11 12 25 16 14 3 32 15 40 26 12 18 18
19 44 10 29 -10 31 -9 31 13 0 13 5 27 10 30 6 3 10 1 10 -4 0 -6 5 -11 11
-11 5 0 8 4 5 9 -7 10 16 21 44 21 10 0 21 6 23 13 4 9 8 8 16 -3 12 -17 92
-15 103 3 6 9 10 9 16 0 4 -6 20 -14 35 -17 25 -4 27 -2 27 27 0 21 3 27 9 19
9 -15 21 223 21 425 l0 133 -45 -35 c-26 -19 -80 -45 -123 -59 l-77 -24 -20
81 c-21 81 -70 187 -87 187 -5 0 -6 -4 -3 -10 3 -5 1 -18 -4 -27 -7 -12 -10
-14 -11 -4 0 10 -3 11 -13 2 -8 -6 -16 -8 -20 -5 -3 3 -71 5 -150 5 -96 -1
-148 2 -152 9 -5 8 -11 8 -20 0 -18 -15 -35 -4 -29 18 2 9 -3 1 -12 -18 -9
-19 -32 -57 -52 -84 -47 -64 -49 -97 -32 -473 13 -305 12 -313 -36 -313 -44 0
-47 21 -34 314 7 149 11 305 9 347 -4 68 -8 79 -39 119 -19 23 -42 66 -52 94
-16 48 -17 49 -18 17 0 -27 -3 -31 -13 -22 -8 6 -17 7 -23 1 -8 -7 -209 -16
-239 -10 -5 1 -18 1 -29 0 -10 -1 -23 4 -27 12 -7 10 -9 10 -9 0 0 -7 -5 -10
-11 -7 -5 4 -20 -1 -31 -12 -21 -18 -21 -18 -9 5 7 13 11 28 9 34 -5 15 -66
-101 -83 -159 -8 -26 -15 -60 -15 -75 l0 -26 -51 13 c-73 20 -155 62 -179 93
-20 25 -21 36 -18 247 3 206 4 223 26 266 34 68 84 122 139 150 26 13 50 27
53 30 13 16 82 17 753 18 l717 1 0 -58z m-565 -678 c11 -22 11 -22 45 -3 62
33 160 17 160 -27 0 -29 -37 -53 -73 -47 -39 6 -88 -15 -111 -49 -12 -17 -16
-50 -16 -145 0 -97 -3 -125 -16 -137 -8 -9 -22 -16 -29 -16 -7 0 -21 7 -29 16
-13 13 -16 46 -16 205 0 116 4 198 11 210 14 27 60 22 74 -7z m-517 0 c21 -15
25 -15 42 1 10 9 29 15 42 13 l23 -3 3 -199 c2 -138 -1 -203 -9 -212 -16 -20
-47 -17 -61 5 -11 18 -12 18 -42 0 -37 -22 -94 -24 -139 -5 -146 62 -157 323
-17 397 44 24 127 25 158 3z m1082 -1014 c0 -27 -3 -30 -32 -30 l-32 0 29 30
c16 17 30 30 32 30 2 0 3 -13 3 -30z m-1413 -16 c-3 -3 -12 -4 -19 -1 -8 3 -5
6 6 6 11 1 17 -2 13 -5z m1220 0 c-3 -3 -12 -4 -19 -1 -8 3 -5 6 6 6 11 1 17
-2 13 -5z"/>
<path d="M1080 915 c0 -79 14 -102 24 -37 4 31 4 54 -3 105 -1 4 -5 7 -11 7
-6 0 -10 -32 -10 -75z"/>
<path d="M1410 440 c-8 -5 -11 -12 -8 -16 10 -9 38 3 38 16 0 12 -10 13 -30 0z"/>
<path d="M1330 400 c-9 -6 -10 -10 -3 -10 6 0 15 5 18 10 8 12 4 12 -15 0z"/>
<path d="M960 370 c8 -5 26 -10 39 -10 32 0 24 6 -19 14 -25 4 -31 3 -20 -4z"/>
<path d="M731 1077 c-64 -33 -89 -129 -53 -209 23 -53 65 -76 114 -62 46 13
71 54 76 122 5 75 -22 134 -69 151 -39 14 -39 14 -68 -2z"/>
</g>
</svg>
