<svg id="svg" version="1.1" width="500" height="500" xmlns="http://www.w3.org/2000/svg" xmlns:xlink="http://www.w3.org/1999/xlink" style="display: block;"><g id="svgg"><path id="path0" d="M76.400 129.789 C 53.582 137.990,42.400 167.263,42.400 218.800 C 42.400 246.475,44.600 264.189,49.555 276.400 C 63.217 310.073,94.024 319.269,115.845 296.189 C 121.422 290.290,122.365 290.342,122.388 296.554 C 122.435 309.575,141.761 313.136,146.809 301.055 C 148.398 297.253,148.625 140.743,147.047 137.038 C 141.303 123.546,122.400 127.508,122.400 142.202 C 122.400 148.260,121.244 149.245,118.454 145.563 C 108.366 132.245,89.380 125.124,76.400 129.789 M262.662 130.351 C 255.860 133.439,256.400 125.843,256.400 218.444 C 256.400 283.937,256.609 300.948,257.431 302.485 C 261.714 310.488,275.229 310.303,279.734 302.180 C 281.061 299.787,281.195 295.329,281.582 240.800 L 282.000 182.000 283.933 178.000 C 292.042 161.222,303.048 154.400,322.009 154.400 C 336.400 154.400,340.300 151.743,340.300 141.938 C 340.300 133.253,335.290 128.800,325.519 128.800 C 320.758 128.800,319.139 129.102,309.600 131.773 C 299.930 134.480,286.995 143.045,284.437 148.435 C 282.354 152.826,281.312 151.499,281.076 144.157 C 280.669 131.474,272.944 125.682,262.662 130.351 M100.646 152.111 C 114.252 155.413,119.695 168.493,121.715 202.738 C 124.784 254.788,115.070 287.200,96.400 287.200 C 78.349 287.200,69.236 259.895,70.767 210.400 C 72.050 168.935,82.884 147.800,100.646 152.111 " stroke="none" fill="#ffffff" fill-rule="evenodd"></path><path id="path1" d="" stroke="none" fill="#ff0000" fill-rule="evenodd"></path><path id="path2" d="M186.000 11.200 C 185.728 11.640,182.488 12.000,178.800 12.000 C 175.112 12.000,171.872 12.360,171.600 12.800 C 171.328 13.240,169.147 13.600,166.753 13.600 C 164.359 13.600,162.400 13.960,162.400 14.400 C 162.400 14.840,160.981 15.200,159.247 15.200 C 157.513 15.200,155.872 15.560,155.600 16.000 C 155.328 16.440,153.867 16.800,152.353 16.800 C 150.839 16.800,149.600 17.160,149.600 17.600 C 149.600 18.040,148.340 18.400,146.800 18.400 C 145.260 18.400,144.000 18.760,144.000 19.200 C 144.000 19.640,142.920 20.000,141.600 20.000 C 140.280 20.000,139.200 20.360,139.200 20.800 C 139.200 21.240,138.120 21.600,136.800 21.600 C 135.480 21.600,134.400 21.960,134.400 22.400 C 134.400 22.840,133.701 23.200,132.847 23.200 C 131.993 23.200,131.072 23.560,130.800 24.000 C 130.528 24.440,129.427 24.800,128.353 24.800 C 127.279 24.800,126.400 25.160,126.400 25.600 C 126.400 26.040,125.680 26.400,124.800 26.400 C 123.920 26.400,123.200 26.760,123.200 27.200 C 123.200 27.640,122.711 28.000,122.112 28.000 C 121.103 28.000,111.297 32.686,110.400 33.596 C 110.180 33.820,108.920 34.541,107.600 35.200 C 106.280 35.859,105.020 36.578,104.800 36.799 C 104.012 37.589,99.573 40.107,98.200 40.543 C 97.430 40.787,96.800 41.305,96.800 41.693 C 96.800 42.082,96.260 42.400,95.600 42.400 C 94.940 42.400,94.400 42.760,94.400 43.200 C 94.400 43.640,93.939 44.000,93.377 44.000 C 92.814 44.000,91.834 44.720,91.200 45.600 C 90.566 46.480,89.586 47.200,89.023 47.200 C 88.461 47.200,88.000 47.560,88.000 48.000 C 88.000 48.440,87.539 48.800,86.977 48.800 C 86.414 48.800,85.434 49.520,84.800 50.400 C 84.166 51.280,83.370 52.000,83.033 52.000 C 81.519 52.000,58.352 74.588,54.400 79.916 C 53.300 81.400,51.860 83.255,51.200 84.039 C 50.540 84.824,49.370 86.220,48.600 87.142 C 47.830 88.064,47.200 89.174,47.200 89.609 C 47.200 90.044,46.840 90.400,46.400 90.400 C 45.960 90.400,45.600 90.940,45.600 91.600 C 45.600 92.260,45.240 92.800,44.800 92.800 C 44.360 92.800,44.000 93.340,44.000 94.000 C 44.000 94.660,43.640 95.200,43.200 95.200 C 42.760 95.200,42.400 95.740,42.400 96.400 C 42.400 97.060,42.040 97.600,41.600 97.600 C 41.160 97.600,40.800 98.140,40.800 98.800 C 40.800 99.460,40.440 100.000,40.000 100.000 C 39.560 100.000,39.200 100.540,39.200 101.200 C 39.200 101.860,38.840 102.400,38.400 102.400 C 37.960 102.400,37.600 103.120,37.600 104.000 C 37.600 104.880,37.240 105.600,36.800 105.600 C 36.360 105.600,36.000 106.140,36.000 106.800 C 36.000 107.460,35.640 108.000,35.200 108.000 C 34.760 108.000,34.400 108.690,34.400 109.533 C 34.400 110.377,34.130 111.187,33.800 111.333 C 32.936 111.717,29.600 118.343,29.600 119.676 C 29.600 120.294,29.240 120.800,28.800 120.800 C 28.360 120.800,28.000 121.499,28.000 122.353 C 28.000 123.207,27.640 124.128,27.200 124.400 C 26.760 124.672,26.400 125.593,26.400 126.447 C 26.400 127.301,26.040 128.000,25.600 128.000 C 25.160 128.000,24.800 128.900,24.800 130.000 C 24.800 131.100,24.440 132.000,24.000 132.000 C 23.560 132.000,23.200 132.900,23.200 134.000 C 23.200 135.100,22.840 136.000,22.400 136.000 C 21.960 136.000,21.600 137.080,21.600 138.400 C 21.600 139.720,21.240 140.800,20.800 140.800 C 20.360 140.800,20.000 141.859,20.000 143.153 C 20.000 144.447,19.640 145.728,19.200 146.000 C 18.760 146.272,18.400 147.532,18.400 148.800 C 18.400 150.068,18.040 151.328,17.600 151.600 C 17.160 151.872,16.800 153.513,16.800 155.247 C 16.800 156.981,16.440 158.400,16.000 158.400 C 15.560 158.400,15.200 160.179,15.200 162.353 C 15.200 164.527,14.840 166.528,14.400 166.800 C 13.960 167.072,13.600 169.433,13.600 172.047 C 13.600 174.682,13.244 176.800,12.800 176.800 C 12.285 176.800,12.000 185.067,12.000 200.000 C 12.000 214.933,12.285 223.200,12.800 223.200 C 13.244 223.200,13.600 225.318,13.600 227.953 C 13.600 230.567,13.960 232.928,14.400 233.200 C 14.840 233.472,15.200 235.473,15.200 237.647 C 15.200 239.821,15.560 241.600,16.000 241.600 C 16.440 241.600,16.800 243.019,16.800 244.753 C 16.800 246.487,17.160 248.128,17.600 248.400 C 18.040 248.672,18.400 249.932,18.400 251.200 C 18.400 252.468,18.760 253.728,19.200 254.000 C 19.640 254.272,20.000 255.553,20.000 256.847 C 20.000 258.141,20.360 259.200,20.800 259.200 C 21.240 259.200,21.600 260.280,21.600 261.600 C 21.600 262.920,21.960 264.000,22.400 264.000 C 22.840 264.000,23.200 264.900,23.200 266.000 C 23.200 267.100,23.560 268.000,24.000 268.000 C 24.440 268.000,24.800 268.900,24.800 270.000 C 24.800 271.100,25.160 272.000,25.600 272.000 C 26.040 272.000,26.400 272.699,26.400 273.553 C 26.400 274.407,26.760 275.328,27.200 275.600 C 27.640 275.872,28.000 276.793,28.000 277.647 C 28.000 278.501,28.360 279.200,28.800 279.200 C 29.240 279.200,29.600 279.706,29.600 280.324 C 29.600 281.657,32.936 288.283,33.800 288.667 C 34.130 288.813,34.400 289.623,34.400 290.467 C 34.400 291.310,34.760 292.000,35.200 292.000 C 35.640 292.000,36.000 292.540,36.000 293.200 C 36.000 293.860,36.360 294.400,36.800 294.400 C 37.240 294.400,37.600 295.120,37.600 296.000 C 37.600 296.880,37.960 297.600,38.400 297.600 C 38.840 297.600,39.200 298.140,39.200 298.800 C 39.200 299.460,39.560 300.000,40.000 300.000 C 40.440 300.000,40.800 300.540,40.800 301.200 C 40.800 301.860,41.160 302.400,41.600 302.400 C 42.040 302.400,42.400 302.940,42.400 303.600 C 42.400 304.260,42.760 304.800,43.200 304.800 C 43.640 304.800,44.000 305.340,44.000 306.000 C 44.000 306.660,44.360 307.200,44.800 307.200 C 45.240 307.200,45.600 307.740,45.600 308.400 C 45.600 309.060,45.960 309.600,46.400 309.600 C 46.840 309.600,47.200 309.956,47.200 310.391 C 47.200 310.826,47.830 311.936,48.600 312.858 C 49.370 313.780,50.540 315.176,51.200 315.961 C 51.860 316.745,53.300 318.600,54.400 320.084 C 58.352 325.412,81.519 348.000,83.033 348.000 C 83.370 348.000,84.166 348.720,84.800 349.600 C 85.434 350.480,86.414 351.200,86.977 351.200 C 87.539 351.200,88.000 351.560,88.000 352.000 C 88.000 352.440,88.461 352.800,89.023 352.800 C 89.586 352.800,90.566 353.520,91.200 354.400 C 91.834 355.280,92.814 356.000,93.377 356.000 C 93.939 356.000,94.400 356.360,94.400 356.800 C 94.400 357.240,94.940 357.600,95.600 357.600 C 96.260 357.600,96.800 357.918,96.800 358.307 C 96.800 358.695,97.430 359.213,98.200 359.457 C 99.573 359.893,104.012 362.411,104.800 363.201 C 105.020 363.422,106.280 364.141,107.600 364.800 C 108.920 365.459,110.180 366.180,110.400 366.404 C 111.297 367.314,121.103 372.000,122.112 372.000 C 122.711 372.000,123.200 372.360,123.200 372.800 C 123.200 373.240,123.920 373.600,124.800 373.600 C 125.680 373.600,126.400 373.960,126.400 374.400 C 126.400 374.840,127.279 375.200,128.353 375.200 C 129.427 375.200,130.528 375.560,130.800 376.000 C 131.072 376.440,131.993 376.800,132.847 376.800 C 133.701 376.800,134.400 377.160,134.400 377.600 C 134.400 378.040,135.480 378.400,136.800 378.400 C 138.120 378.400,139.200 378.760,139.200 379.200 C 139.200 379.640,140.280 380.000,141.600 380.000 C 142.920 380.000,144.000 380.360,144.000 380.800 C 144.000 381.240,145.260 381.600,146.800 381.600 C 148.340 381.600,149.600 381.960,149.600 382.400 C 149.600 382.840,150.839 383.200,152.353 383.200 C 153.867 383.200,155.328 383.560,155.600 384.000 C 155.872 384.440,157.513 384.800,159.247 384.800 C 160.981 384.800,162.400 385.160,162.400 385.600 C 162.400 386.040,164.359 386.400,166.753 386.400 C 169.147 386.400,171.328 386.760,171.600 387.200 C 171.872 387.640,175.133 388.000,178.847 388.000 C 182.816 388.000,185.600 388.330,185.600 388.800 C 185.600 389.304,190.918 389.600,199.953 389.600 C 208.658 389.600,214.500 389.285,214.800 388.800 C 215.072 388.360,218.513 388.000,222.447 388.000 C 226.682 388.000,229.600 387.674,229.600 387.200 C 229.600 386.760,231.379 386.400,233.553 386.400 C 235.727 386.400,237.728 386.040,238.000 385.600 C 238.272 385.160,239.892 384.800,241.600 384.800 C 243.308 384.800,244.928 384.440,245.200 384.000 C 245.472 383.560,246.933 383.200,248.447 383.200 C 249.961 383.200,251.200 382.840,251.200 382.400 C 251.200 381.960,252.460 381.600,254.000 381.600 C 255.540 381.600,256.800 381.240,256.800 380.800 C 256.800 380.360,257.880 380.000,259.200 380.000 C 260.520 380.000,261.600 379.640,261.600 379.200 C 261.600 378.760,262.479 378.400,263.553 378.400 C 264.627 378.400,265.728 378.040,266.000 377.600 C 266.272 377.160,267.373 376.800,268.447 376.800 C 269.521 376.800,270.400 376.440,270.400 376.000 C 270.400 375.560,271.099 375.200,271.953 375.200 C 272.807 375.200,273.728 374.840,274.000 374.400 C 274.272 373.960,275.193 373.600,276.047 373.600 C 276.901 373.600,277.600 373.240,277.600 372.800 C 277.600 372.360,278.299 372.000,279.153 372.000 C 280.007 372.000,280.928 371.640,281.200 371.200 C 281.472 370.760,282.393 370.400,283.247 370.400 C 284.101 370.400,284.800 370.040,284.800 369.600 C 284.800 369.160,285.340 368.800,286.000 368.800 C 286.660 368.800,287.200 368.440,287.200 368.000 C 287.200 367.560,287.668 367.200,288.241 367.200 C 289.712 367.200,293.586 365.318,293.594 364.600 C 293.597 364.270,294.110 364.000,294.733 364.000 C 295.357 364.000,295.987 363.730,296.133 363.400 C 296.467 362.649,300.728 360.051,302.600 359.457 C 303.370 359.213,304.000 358.695,304.000 358.307 C 304.000 357.918,304.510 357.600,305.133 357.600 C 305.757 357.600,306.387 357.309,306.533 356.953 C 306.680 356.598,308.420 355.192,310.400 353.829 C 312.380 352.466,314.795 350.597,315.767 349.676 C 316.738 348.754,317.745 348.000,318.003 348.000 C 318.261 348.000,319.309 347.190,320.331 346.200 C 321.353 345.210,323.678 343.195,325.498 341.723 C 329.749 338.283,338.283 329.749,341.723 325.498 C 343.195 323.678,345.210 321.353,346.200 320.331 C 347.190 319.309,348.000 318.176,348.000 317.813 C 348.000 317.450,348.720 316.634,349.600 316.000 C 350.480 315.366,351.200 314.386,351.200 313.823 C 351.200 313.261,351.560 312.800,352.000 312.800 C 352.440 312.800,352.800 312.444,352.800 312.009 C 352.800 311.307,353.872 309.789,356.400 306.911 C 356.840 306.410,357.711 305.010,358.335 303.800 C 358.960 302.590,359.770 301.600,360.135 301.600 C 360.501 301.600,360.800 300.880,360.800 300.000 C 360.800 299.120,361.160 298.400,361.600 298.400 C 362.040 298.400,362.400 297.860,362.400 297.200 C 362.400 296.540,362.693 296.000,363.051 296.000 C 363.409 296.000,364.196 294.740,364.800 293.200 C 365.404 291.660,366.191 290.400,366.549 290.400 C 366.907 290.400,367.200 289.710,367.200 288.867 C 367.200 288.023,367.470 287.213,367.800 287.067 C 368.664 286.683,372.000 280.057,372.000 278.724 C 372.000 278.106,372.360 277.600,372.800 277.600 C 373.240 277.600,373.600 277.055,373.600 276.389 C 373.600 275.723,373.918 274.553,374.307 273.789 C 374.695 273.025,375.457 271.320,376.000 270.000 C 376.543 268.680,377.305 266.975,377.693 266.211 C 378.082 265.447,378.400 264.118,378.400 263.258 C 378.400 262.398,378.760 261.472,379.200 261.200 C 379.640 260.928,380.000 259.848,380.000 258.800 C 380.000 257.752,380.360 256.672,380.800 256.400 C 381.240 256.128,381.600 254.847,381.600 253.553 C 381.600 252.259,381.960 251.200,382.400 251.200 C 382.840 251.200,383.200 249.760,383.200 248.000 C 383.200 246.240,383.560 244.800,384.000 244.800 C 384.440 244.800,384.800 243.381,384.800 241.647 C 384.800 239.913,385.160 238.272,385.600 238.000 C 386.040 237.728,386.400 235.547,386.400 233.153 C 386.400 230.759,386.760 228.800,387.200 228.800 C 387.670 228.800,388.000 226.016,388.000 222.047 C 388.000 218.333,388.360 215.072,388.800 214.800 C 389.285 214.500,389.600 208.674,389.600 200.000 C 389.600 191.326,389.285 185.500,388.800 185.200 C 388.360 184.928,388.000 181.667,388.000 177.953 C 388.000 173.984,387.670 171.200,387.200 171.200 C 386.760 171.200,386.400 169.241,386.400 166.847 C 386.400 164.453,386.040 162.272,385.600 162.000 C 385.160 161.728,384.800 160.087,384.800 158.353 C 384.800 156.619,384.440 155.200,384.000 155.200 C 383.560 155.200,383.200 153.760,383.200 152.000 C 383.200 150.240,382.840 148.800,382.400 148.800 C 381.960 148.800,381.600 147.741,381.600 146.447 C 381.600 145.153,381.240 143.872,380.800 143.600 C 380.360 143.328,380.000 142.248,380.000 141.200 C 380.000 140.152,379.640 139.072,379.200 138.800 C 378.760 138.528,378.400 137.602,378.400 136.742 C 378.400 135.882,378.082 134.553,377.693 133.789 C 377.305 133.025,376.543 131.320,376.000 130.000 C 375.457 128.680,374.695 126.975,374.307 126.211 C 373.918 125.447,373.600 124.277,373.600 123.611 C 373.600 122.945,373.240 122.400,372.800 122.400 C 372.360 122.400,372.000 121.911,372.000 121.312 C 372.000 120.228,367.232 110.360,366.341 109.600 C 366.083 109.380,365.363 108.030,364.741 106.600 C 364.118 105.170,363.337 104.000,363.005 104.000 C 362.672 104.000,362.400 103.460,362.400 102.800 C 362.400 102.140,362.040 101.600,361.600 101.600 C 361.160 101.600,360.800 100.880,360.800 100.000 C 360.800 99.120,360.501 98.400,360.135 98.400 C 359.770 98.400,358.960 97.415,358.335 96.211 C 357.209 94.040,355.723 91.994,353.800 89.968 C 353.250 89.388,352.800 88.529,352.800 88.057 C 352.800 87.586,352.440 87.200,352.000 87.200 C 351.560 87.200,351.200 86.739,351.200 86.177 C 351.200 85.614,350.480 84.634,349.600 84.000 C 348.720 83.366,348.000 82.550,348.000 82.187 C 348.000 81.824,347.190 80.691,346.200 79.669 C 345.210 78.647,343.195 76.322,341.723 74.502 C 338.283 70.251,329.749 61.717,325.498 58.277 C 323.678 56.805,321.353 54.790,320.331 53.800 C 319.309 52.810,318.261 52.000,318.003 52.000 C 317.745 52.000,316.738 51.246,315.767 50.324 C 314.795 49.403,312.380 47.534,310.400 46.171 C 308.420 44.808,306.680 43.402,306.533 43.047 C 306.387 42.691,305.787 42.400,305.200 42.400 C 304.613 42.400,304.013 42.130,303.867 41.800 C 303.533 41.049,299.272 38.451,297.400 37.857 C 296.630 37.613,296.000 37.095,296.000 36.707 C 296.000 36.318,295.550 35.992,295.000 35.982 C 294.450 35.972,293.100 35.260,292.000 34.400 C 290.900 33.540,289.370 32.828,288.600 32.818 C 287.830 32.808,287.200 32.440,287.200 32.000 C 287.200 31.560,286.660 31.200,286.000 31.200 C 285.340 31.200,284.800 30.840,284.800 30.400 C 284.800 29.960,284.101 29.600,283.247 29.600 C 282.393 29.600,281.472 29.240,281.200 28.800 C 280.928 28.360,280.007 28.000,279.153 28.000 C 278.299 28.000,277.600 27.640,277.600 27.200 C 277.600 26.760,276.901 26.400,276.047 26.400 C 275.193 26.400,274.272 26.040,274.000 25.600 C 273.728 25.160,272.807 24.800,271.953 24.800 C 271.099 24.800,270.400 24.440,270.400 24.000 C 270.400 23.560,269.521 23.200,268.447 23.200 C 267.373 23.200,266.272 22.840,266.000 22.400 C 265.728 21.960,264.627 21.600,263.553 21.600 C 262.479 21.600,261.600 21.240,261.600 20.800 C 261.600 20.360,260.520 20.000,259.200 20.000 C 257.880 20.000,256.800 19.640,256.800 19.200 C 256.800 18.760,255.540 18.400,254.000 18.400 C 252.460 18.400,251.200 18.040,251.200 17.600 C 251.200 17.160,249.961 16.800,248.447 16.800 C 246.933 16.800,245.472 16.440,245.200 16.000 C 244.928 15.560,243.308 15.200,241.600 15.200 C 239.892 15.200,238.272 14.840,238.000 14.400 C 237.728 13.960,235.727 13.600,233.553 13.600 C 231.379 13.600,229.600 13.240,229.600 12.800 C 229.600 12.326,226.682 12.000,222.447 12.000 C 218.513 12.000,215.072 11.640,214.800 11.200 C 214.501 10.716,208.807 10.400,200.400 10.400 C 191.993 10.400,186.299 10.716,186.000 11.200 M209.729 26.740 C 244.094 34.956,255.742 98.585,229.877 136.800 C 227.643 140.100,222.918 146.371,219.377 150.735 C 208.488 164.154,208.523 163.869,212.045 210.000 C 214.096 236.848,214.483 241.858,215.231 251.200 C 216.225 263.612,217.399 277.685,218.400 289.200 C 218.821 294.040,219.541 302.500,220.000 308.000 C 221.346 324.124,222.400 335.872,223.228 344.000 C 224.682 358.263,220.027 367.646,209.098 372.479 C 198.440 377.192,183.011 371.688,179.076 361.768 C 175.764 353.418,175.770 353.736,178.416 326.400 C 178.820 322.220,179.535 313.940,180.005 308.000 C 180.474 302.060,181.192 293.600,181.600 289.200 C 182.008 284.800,182.727 276.340,183.197 270.400 C 183.668 264.460,184.396 255.460,184.815 250.400 C 185.538 241.692,186.183 233.395,187.974 209.800 C 191.466 163.810,191.508 164.148,180.623 150.735 C 161.638 127.338,156.569 114.177,156.461 88.000 C 156.287 45.484,178.979 19.388,209.729 26.740 M97.568 127.967 C 107.194 132.427,110.317 134.406,114.804 138.893 L 119.830 143.919 120.386 140.213 C 122.646 125.142,141.037 122.258,148.600 135.789 C 150.513 139.212,150.000 299.735,148.065 302.907 C 140.557 315.221,122.998 312.130,120.353 298.029 L 119.796 295.061 116.098 298.611 C 100.053 314.015,79.916 315.231,64.753 301.710 C 57.262 295.030,47.200 279.798,47.200 275.137 C 47.200 274.343,46.882 273.498,46.492 273.257 C 46.103 273.016,45.579 271.825,45.328 270.610 C 45.077 269.394,44.474 266.600,43.988 264.400 C 37.717 236.002,38.980 186.728,46.574 163.600 C 52.627 145.161,68.278 128.198,80.400 126.937 C 84.429 126.518,95.930 127.208,97.568 127.967 M275.098 128.469 C 280.049 130.939,284.773 139.912,283.457 144.348 C 283.134 145.438,284.272 144.828,287.299 142.288 C 294.733 136.051,304.209 130.400,307.234 130.400 C 308.043 130.400,308.903 130.080,309.145 129.688 C 311.831 125.342,335.697 126.988,338.618 131.720 C 338.957 132.271,339.677 133.189,340.218 133.761 C 344.446 138.235,343.672 146.756,338.576 151.833 C 334.523 155.870,333.016 156.319,324.142 156.139 C 316.444 155.982,314.458 156.254,306.000 158.623 C 297.831 160.911,289.254 169.370,286.350 178.000 C 285.758 179.760,284.987 181.542,284.637 181.960 C 284.287 182.378,284.000 207.821,284.000 238.499 C 284.000 301.309,284.038 300.815,278.808 306.000 C 274.711 310.062,266.610 312.681,265.200 310.400 C 264.928 309.960,264.097 309.590,263.353 309.578 C 261.400 309.547,257.180 305.689,255.256 302.176 C 252.613 297.348,252.654 141.195,255.300 135.566 C 258.728 128.272,268.024 124.940,275.098 128.469 M94.000 154.146 C 93.120 154.320,91.581 154.637,90.579 154.852 C 88.466 155.303,82.400 161.270,82.400 162.896 C 82.400 163.503,82.040 164.000,81.600 164.000 C 81.160 164.000,80.800 164.545,80.800 165.211 C 80.800 165.877,80.482 167.047,80.093 167.811 C 77.317 173.268,75.487 180.951,73.568 195.200 C 72.652 202.006,72.925 240.416,73.944 248.000 C 74.923 255.292,77.013 264.838,78.410 268.400 C 83.229 280.692,87.438 284.426,96.400 284.357 C 103.996 284.298,112.800 277.561,112.800 271.808 C 112.800 271.210,113.097 270.378,113.461 269.960 C 114.657 268.585,116.317 261.739,118.414 249.537 C 119.566 242.836,119.568 190.349,118.416 186.405 C 117.967 184.868,117.600 182.275,117.600 180.643 C 117.600 179.011,117.277 176.848,116.883 175.838 C 116.489 174.827,115.696 172.380,115.120 170.400 C 111.728 158.728,103.371 152.296,94.000 154.146 " stroke="none" fill="#ff6600" fill-rule="evenodd"></path><path id="path3" d="M191.809 26.264 C 191.044 26.567,194.769 26.815,200.087 26.815 C 205.406 26.815,208.912 26.577,207.879 26.287 C 205.377 25.584,193.567 25.567,191.809 26.264 M182.400 29.649 C 175.490 33.450,163.174 47.441,165.070 49.336 C 165.255 49.521,166.536 47.670,167.918 45.222 C 172.541 37.031,177.703 32.297,185.514 29.083 C 187.981 28.068,189.280 27.236,188.400 27.233 C 187.520 27.231,184.820 28.318,182.400 29.649 M214.486 29.083 C 222.297 32.297,227.459 37.031,232.082 45.222 C 233.464 47.670,234.745 49.521,234.930 49.336 C 237.942 46.324,217.553 27.137,211.427 27.219 C 210.642 27.229,212.019 28.068,214.486 29.083 M159.690 61.299 C 158.980 63.381,158.426 65.651,158.457 66.343 C 158.488 67.034,159.228 65.489,160.100 62.910 C 160.972 60.330,161.527 58.060,161.333 57.866 C 161.139 57.672,160.399 59.217,159.690 61.299 M238.488 58.000 C 238.464 58.440,239.162 60.780,240.037 63.200 C 241.037 65.961,241.489 66.663,241.252 65.085 C 240.860 62.478,238.563 56.590,238.488 58.000 M157.379 69.600 C 157.072 70.700,156.849 72.500,156.883 73.600 C 156.936 75.322,157.052 75.227,157.716 72.921 C 158.140 71.447,158.363 69.647,158.211 68.921 C 158.016 67.987,157.772 68.186,157.379 69.600 M241.736 69.600 C 241.775 72.901,243.034 76.313,243.064 73.200 C 243.077 71.880,242.778 70.080,242.400 69.200 C 241.775 67.746,241.715 67.782,241.736 69.600 M156.308 87.200 C 156.308 92.700,156.436 94.950,156.592 92.200 C 156.749 89.450,156.749 84.950,156.592 82.200 C 156.436 79.450,156.308 81.700,156.308 87.200 M243.508 87.200 C 243.508 92.700,243.636 94.950,243.792 92.200 C 243.949 89.450,243.949 84.950,243.792 82.200 C 243.636 79.450,243.508 81.700,243.508 87.200 M156.959 102.000 C 156.959 103.320,157.248 105.300,157.600 106.400 C 158.223 108.345,158.241 108.334,158.241 106.000 C 158.241 104.680,157.952 102.700,157.600 101.600 C 156.977 99.655,156.959 99.666,156.959 102.000 M241.964 103.564 C 241.658 105.604,241.604 107.470,241.844 107.710 C 242.084 107.950,242.530 106.477,242.836 104.436 C 243.142 102.396,243.196 100.530,242.956 100.290 C 242.716 100.050,242.270 101.523,241.964 103.564 M158.512 110.000 C 158.512 110.880,158.822 112.320,159.200 113.200 L 159.888 114.800 159.888 113.200 C 159.888 112.320,159.578 110.880,159.200 110.000 L 158.512 108.400 158.512 110.000 M240.400 111.200 C 240.096 112.583,240.028 113.894,240.248 114.114 C 240.468 114.334,240.896 113.383,241.200 112.000 C 241.504 110.617,241.572 109.306,241.352 109.086 C 241.132 108.866,240.704 109.817,240.400 111.200 M160.025 116.000 C 160.025 116.660,160.373 117.740,160.800 118.400 C 161.489 119.467,161.575 119.467,161.575 118.400 C 161.575 117.740,161.227 116.660,160.800 116.000 C 160.111 114.933,160.025 114.933,160.025 116.000 M238.800 116.800 C 238.500 117.746,238.434 118.701,238.654 118.921 C 238.874 119.141,239.300 118.546,239.600 117.600 C 239.900 116.654,239.966 115.699,239.746 115.479 C 239.526 115.259,239.100 115.854,238.800 116.800 M163.200 124.432 C 163.200 127.577,185.765 159.302,187.072 157.995 C 187.257 157.810,185.629 155.575,183.454 153.029 C 175.600 143.835,167.294 131.936,165.152 126.808 C 164.110 124.315,163.200 123.207,163.200 124.432 M234.884 126.721 C 232.707 131.933,224.456 143.770,216.546 153.029 C 214.371 155.575,212.743 157.810,212.928 157.995 C 213.370 158.437,226.057 142.543,230.165 136.400 C 234.031 130.619,237.064 124.797,236.503 124.236 C 236.278 124.011,235.550 125.130,234.884 126.721 M84.600 126.965 C 85.590 127.155,87.210 127.155,88.200 126.965 C 89.190 126.774,88.380 126.618,86.400 126.618 C 84.420 126.618,83.610 126.774,84.600 126.965 M75.689 127.855 C 75.467 128.216,76.345 128.355,77.642 128.164 C 78.939 127.974,80.000 127.679,80.000 127.509 C 80.000 126.900,76.086 127.214,75.689 127.855 M92.800 127.509 C 92.800 127.679,93.861 127.974,95.158 128.164 C 96.455 128.355,97.333 128.216,97.111 127.855 C 96.714 127.214,92.800 126.900,92.800 127.509 M267.600 127.605 C 269.429 128.243,274.258 128.417,273.897 127.833 C 273.682 127.485,271.997 127.228,270.153 127.263 C 268.309 127.298,267.160 127.452,267.600 127.605 M319.424 127.789 C 321.527 127.954,324.767 127.952,326.624 127.785 C 328.481 127.617,326.760 127.482,322.800 127.484 C 318.840 127.486,317.321 127.624,319.424 127.789 M275.271 129.000 C 275.456 129.110,276.866 130.280,278.404 131.600 L 281.200 134.000 278.850 131.400 C 277.558 129.970,276.148 128.800,275.717 128.800 C 275.286 128.800,275.085 128.890,275.271 129.000 M62.762 137.000 L 59.600 140.400 63.000 137.238 C 66.162 134.297,66.768 133.600,66.162 133.600 C 66.032 133.600,64.502 135.130,62.762 137.000 M253.790 218.953 C 253.685 263.477,253.870 300.073,254.200 300.277 C 254.743 300.612,254.739 243.927,254.189 167.200 C 254.074 151.140,253.894 174.429,253.790 218.953 M342.602 142.000 C 342.611 143.760,342.774 144.386,342.966 143.391 C 343.157 142.396,343.150 140.956,342.950 140.191 C 342.749 139.426,342.593 140.240,342.602 142.000 M120.120 141.847 C 120.037 143.393,119.688 143.918,119.000 143.530 C 118.206 143.082,118.203 143.185,118.987 144.029 C 120.336 145.484,120.988 144.601,120.580 141.873 L 120.240 139.600 120.120 141.847 M285.200 144.000 C 283.935 145.320,283.238 146.380,283.650 146.356 C 284.355 146.314,288.479 141.600,287.811 141.600 C 287.639 141.600,286.465 142.680,285.200 144.000 M98.600 154.151 C 99.370 154.353,100.630 154.353,101.400 154.151 C 102.170 153.950,101.540 153.786,100.000 153.786 C 98.460 153.786,97.830 153.950,98.600 154.151 M317.800 155.773 C 319.010 155.956,320.990 155.956,322.200 155.773 C 323.410 155.590,322.420 155.440,320.000 155.440 C 317.580 155.440,316.590 155.590,317.800 155.773 M106.400 156.250 C 106.400 156.388,107.570 157.558,109.000 158.850 L 111.600 161.200 109.250 158.600 C 107.060 156.176,106.400 155.632,106.400 156.250 M310.000 156.800 C 307.822 157.354,307.785 157.414,309.600 157.449 C 310.700 157.470,312.320 157.178,313.200 156.800 C 315.173 155.952,313.331 155.952,310.000 156.800 M187.223 159.240 C 187.307 160.585,190.299 168.139,190.344 167.119 C 190.414 165.524,188.819 160.661,187.891 159.640 C 187.511 159.222,187.210 159.042,187.223 159.240 M211.164 161.289 C 210.680 162.560,210.123 164.680,209.927 166.000 C 209.729 167.331,210.266 166.447,211.133 164.014 C 212.731 159.531,212.758 157.105,211.164 161.289 M42.602 180.400 C 42.611 182.160,42.774 182.786,42.966 181.791 C 43.157 180.796,43.150 179.356,42.950 178.591 C 42.749 177.826,42.593 178.640,42.602 180.400 M117.802 182.000 C 117.811 183.760,117.974 184.386,118.166 183.391 C 118.357 182.396,118.350 180.956,118.150 180.191 C 117.949 179.426,117.793 180.240,117.802 182.000 M189.264 189.724 C 188.908 195.293,188.788 200.333,188.997 200.924 C 189.497 202.338,190.662 184.194,190.238 181.600 C 190.058 180.500,189.620 184.156,189.264 189.724 M209.819 185.600 C 209.802 188.900,210.050 193.940,210.372 196.800 L 210.956 202.000 210.979 196.400 C 210.991 193.320,210.743 188.280,210.427 185.200 L 209.852 179.600 209.819 185.600 M283.394 239.300 C 283.287 269.495,283.021 295.415,282.803 296.900 L 282.405 299.600 283.208 297.067 C 283.722 295.446,283.935 274.694,283.800 239.467 L 283.589 184.400 283.394 239.300 M73.818 190.400 C 73.818 192.380,73.974 193.190,74.165 192.200 C 74.355 191.210,74.355 189.590,74.165 188.600 C 73.974 187.610,73.818 188.420,73.818 190.400 M41.056 192.800 C 41.056 195.660,41.201 196.830,41.379 195.400 C 41.556 193.970,41.556 191.630,41.379 190.200 C 41.201 188.770,41.056 189.940,41.056 192.800 M119.526 204.000 C 119.526 211.260,119.647 214.230,119.795 210.600 C 119.943 206.970,119.943 201.030,119.795 197.400 C 119.647 193.770,119.526 196.740,119.526 204.000 M72.344 220.000 C 72.344 230.340,72.458 234.570,72.597 229.400 C 72.737 224.230,72.737 215.770,72.597 210.600 C 72.458 205.430,72.344 209.660,72.344 220.000 M40.202 206.800 C 40.211 208.560,40.374 209.186,40.566 208.191 C 40.757 207.196,40.750 205.756,40.550 204.991 C 40.349 204.226,40.193 205.040,40.202 206.800 M187.680 212.864 C 187.323 217.079,187.186 221.219,187.377 222.064 C 187.848 224.150,189.030 210.616,188.640 207.600 C 188.470 206.280,188.038 208.649,187.680 212.864 M211.383 210.400 C 211.359 213.260,211.621 217.400,211.963 219.600 L 212.586 223.600 212.614 218.800 C 212.629 216.160,212.368 212.020,212.034 209.600 L 211.425 205.200 211.383 210.400 M119.516 233.200 C 119.517 239.360,119.642 241.774,119.795 238.565 C 119.947 235.356,119.946 230.316,119.792 227.365 C 119.639 224.414,119.514 227.040,119.516 233.200 M40.218 230.400 C 40.218 232.380,40.374 233.190,40.565 232.200 C 40.755 231.210,40.755 229.590,40.565 228.600 C 40.374 227.610,40.218 228.420,40.218 230.400 M186.020 234.530 C 185.690 238.782,185.591 242.742,185.800 243.330 C 186.008 243.919,186.449 240.921,186.780 236.670 C 187.110 232.418,187.209 228.458,187.000 227.870 C 186.792 227.281,186.351 230.279,186.020 234.530 M212.992 231.200 C 212.973 233.620,213.232 237.580,213.566 240.000 L 214.175 244.400 214.208 240.000 C 214.227 237.580,213.968 233.620,213.634 231.200 L 213.025 226.800 212.992 231.200 M41.056 244.000 C 41.056 246.860,41.201 248.030,41.379 246.600 C 41.556 245.170,41.556 242.830,41.379 241.400 C 41.201 239.970,41.056 241.140,41.056 244.000 M73.829 249.200 C 73.835 251.400,73.990 252.205,74.174 250.989 C 74.358 249.773,74.353 247.973,74.163 246.989 C 73.973 246.005,73.823 247.000,73.829 249.200 M184.430 253.618 C 184.106 257.368,183.987 261.328,184.166 262.418 C 184.345 263.508,184.781 260.921,185.136 256.670 C 185.490 252.418,185.609 248.458,185.400 247.870 C 185.191 247.281,184.754 249.868,184.430 253.618 M214.592 251.200 C 214.573 253.620,214.832 257.580,215.166 260.000 L 215.775 264.400 215.808 260.000 C 215.827 257.580,215.568 253.620,215.234 251.200 L 214.625 246.800 214.592 251.200 M117.802 253.200 C 117.811 254.960,117.974 255.586,118.166 254.591 C 118.357 253.596,118.350 252.156,118.150 251.391 C 117.949 250.626,117.793 251.440,117.802 253.200 M42.412 256.867 C 42.419 258.370,42.754 260.121,43.157 260.758 C 43.631 261.508,43.730 260.660,43.435 258.358 C 42.870 253.941,42.396 253.250,42.412 256.867 M182.793 273.813 C 182.485 277.512,182.388 281.228,182.578 282.070 C 182.768 282.911,183.209 280.074,183.559 275.764 C 183.909 271.455,184.006 267.739,183.774 267.508 C 183.543 267.276,183.101 270.113,182.793 273.813 M216.186 270.800 C 216.171 273.000,216.432 276.780,216.766 279.200 L 217.375 283.600 217.417 279.200 C 217.441 276.780,217.179 273.000,216.837 270.800 L 216.214 266.800 216.186 270.800 M94.600 285.351 C 95.370 285.553,96.630 285.553,97.400 285.351 C 98.170 285.150,97.540 284.986,96.000 284.986 C 94.460 284.986,93.830 285.150,94.600 285.351 M181.231 292.029 C 180.908 295.346,180.790 298.946,180.968 300.029 C 181.147 301.113,181.582 298.880,181.935 295.067 C 182.289 291.254,182.407 287.654,182.198 287.067 C 181.989 286.480,181.554 288.713,181.231 292.029 M217.770 290.000 C 217.754 292.200,218.021 295.800,218.363 298.000 L 218.986 302.000 219.034 297.600 C 219.060 295.180,218.793 291.580,218.441 289.600 L 217.800 286.000 217.770 290.000 M117.924 296.200 L 116.400 298.000 118.136 296.534 C 119.837 295.098,119.879 295.106,120.227 296.934 C 120.547 298.615,120.593 298.582,120.691 296.600 C 120.823 293.930,119.953 293.804,117.924 296.200 M62.000 299.200 C 64.167 301.400,66.120 303.200,66.340 303.200 C 66.560 303.200,64.967 301.400,62.800 299.200 C 60.633 297.000,58.680 295.200,58.460 295.200 C 58.240 295.200,59.833 297.000,62.000 299.200 M107.600 304.800 C 106.280 305.674,105.560 306.384,106.000 306.377 C 106.802 306.364,111.152 303.247,110.400 303.223 C 110.180 303.216,108.920 303.926,107.600 304.800 M276.938 306.862 C 275.034 308.368,273.804 309.600,274.205 309.600 C 274.605 309.600,276.343 308.355,278.067 306.833 C 282.075 303.294,281.428 303.311,276.938 306.862 M179.654 311.270 C 179.312 315.048,179.188 318.828,179.378 319.670 C 179.568 320.511,180.004 318.109,180.346 314.330 C 180.688 310.552,180.812 306.772,180.622 305.930 C 180.432 305.089,179.996 307.491,179.654 311.270 M219.377 308.800 C 219.357 311.220,219.621 315.000,219.963 317.200 L 220.586 321.200 220.623 316.800 C 220.643 314.380,220.379 310.600,220.037 308.400 L 219.414 304.400 219.377 308.800 M265.503 310.623 C 265.889 311.009,267.239 311.196,268.503 311.039 C 270.617 310.775,270.562 310.719,267.801 310.337 C 266.081 310.099,265.101 310.221,265.503 310.623 M83.800 310.979 C 85.230 311.156,87.570 311.156,89.000 310.979 C 90.430 310.801,89.260 310.656,86.400 310.656 C 83.540 310.656,82.370 310.801,83.800 310.979 M133.800 310.951 C 134.570 311.153,135.830 311.153,136.600 310.951 C 137.370 310.750,136.740 310.586,135.200 310.586 C 133.660 310.586,133.030 310.750,133.800 310.951 M178.200 327.512 C 177.870 329.663,177.644 333.083,177.698 335.112 L 177.795 338.800 178.514 334.000 C 178.909 331.360,179.135 327.940,179.016 326.400 C 178.816 323.806,178.756 323.888,178.200 327.512 M220.979 327.200 C 220.968 329.180,221.232 332.780,221.566 335.200 L 222.175 339.600 222.228 335.200 C 222.257 332.780,221.993 329.180,221.641 327.200 L 221.000 323.600 220.979 327.200 M176.517 346.600 C 176.240 349.350,176.339 352.680,176.738 354.000 C 177.299 355.858,177.478 354.730,177.531 349.000 C 177.611 340.403,177.232 339.506,176.517 346.600 M222.571 348.800 C 222.550 354.782,222.703 355.850,223.290 353.818 C 223.743 352.250,223.754 349.265,223.317 346.218 L 222.597 341.200 222.571 348.800 M179.200 361.909 C 179.200 364.198,188.911 372.800,191.494 372.800 C 191.944 372.800,190.699 371.776,188.726 370.525 C 186.753 369.274,183.802 366.689,182.169 364.781 C 180.536 362.873,179.200 361.581,179.200 361.909 M217.664 364.958 C 216.168 366.740,213.311 369.233,211.315 370.499 C 209.320 371.765,208.056 372.800,208.506 372.800 C 210.114 372.800,216.686 367.901,218.805 365.122 C 221.826 361.162,220.956 361.037,217.664 364.958 M193.876 373.788 C 194.384 374.111,197.140 374.375,200.000 374.375 C 202.860 374.375,205.616 374.111,206.124 373.788 C 206.632 373.464,203.876 373.200,200.000 373.200 C 196.124 373.200,193.368 373.464,193.876 373.788 " stroke="none" fill="#ff7e28" fill-rule="evenodd"></path><path id="path4" d="M133.800 127.751 C 134.570 127.953,135.830 127.953,136.600 127.751 C 137.370 127.550,136.740 127.386,135.200 127.386 C 133.660 127.386,133.030 127.550,133.800 127.751 M149.185 218.800 C 149.185 262.360,149.282 280.063,149.400 258.139 C 149.518 236.216,149.518 200.576,149.400 178.939 C 149.281 157.303,149.185 175.240,149.185 218.800 M293.150 165.800 L 290.800 168.400 293.400 166.050 C 295.824 163.860,296.368 163.200,295.750 163.200 C 295.612 163.200,294.442 164.370,293.150 165.800 M120.308 218.400 C 120.308 223.900,120.436 226.150,120.592 223.400 C 120.749 220.650,120.749 216.150,120.592 213.400 C 120.436 210.650,120.308 212.900,120.308 218.400 M40.303 218.400 C 40.303 223.460,40.432 225.530,40.591 223.000 C 40.750 220.470,40.750 216.330,40.591 213.800 C 40.432 211.270,40.303 213.340,40.303 218.400 " stroke="none" fill="#ff9045" fill-rule="evenodd"></path><path id="path5" d="M83.800 127.779 C 85.230 127.956,87.570 127.956,89.000 127.779 C 90.430 127.601,89.260 127.456,86.400 127.456 C 83.540 127.456,82.370 127.601,83.800 127.779 M282.400 144.400 C 282.400 145.940,282.688 147.200,283.039 147.200 C 283.391 147.200,283.532 145.940,283.352 144.400 C 283.172 142.860,282.884 141.600,282.712 141.600 C 282.541 141.600,282.400 142.860,282.400 144.400 M282.778 241.200 C 282.778 271.120,282.878 283.244,283.000 268.142 C 283.122 253.039,283.121 228.559,283.000 213.742 C 282.878 198.924,282.778 211.280,282.778 241.200 M120.240 204.800 C 120.240 207.220,120.390 208.210,120.573 207.000 C 120.756 205.790,120.756 203.810,120.573 202.600 C 120.390 201.390,120.240 202.380,120.240 204.800 M120.218 231.200 C 120.218 233.180,120.374 233.990,120.565 233.000 C 120.755 232.010,120.755 230.390,120.565 229.400 C 120.374 228.410,120.218 229.220,120.218 231.200 M40.986 233.600 C 40.986 235.140,41.150 235.770,41.351 235.000 C 41.553 234.230,41.553 232.970,41.351 232.200 C 41.150 231.430,40.986 232.060,40.986 233.600 M107.550 281.000 L 105.200 283.600 107.800 281.250 C 109.230 279.958,110.400 278.788,110.400 278.650 C 110.400 278.032,109.740 278.576,107.550 281.000 M133.800 310.151 C 134.570 310.353,135.830 310.353,136.600 310.151 C 137.370 309.950,136.740 309.786,135.200 309.786 C 133.660 309.786,133.030 309.950,133.800 310.151 " stroke="none" fill="#ff9c5b" fill-rule="evenodd"></path><path id="path6" d="M191.824 27.224 C 168.619 31.134,150.667 70.510,157.623 102.246 C 158.075 104.311,158.832 107.800,159.305 110.000 C 162.135 123.182,168.336 134.645,180.729 149.600 C 190.812 161.769,191.886 169.265,188.982 207.200 C 186.313 242.079,184.700 262.120,182.350 289.600 C 181.917 294.660,181.204 303.120,180.765 308.400 C 180.326 313.680,179.613 321.600,179.180 326.000 C 177.517 342.912,177.343 356.154,178.743 359.418 C 186.669 377.906,213.328 377.906,221.258 359.418 C 222.677 356.109,222.507 343.673,220.802 326.000 C 220.335 321.160,219.612 313.060,219.197 308.000 C 218.781 302.940,218.057 294.300,217.589 288.800 C 215.055 259.068,213.697 242.205,211.018 207.200 C 208.114 169.265,209.188 161.769,219.271 149.600 C 231.478 134.868,238.061 122.713,240.718 110.000 C 241.178 107.800,241.925 104.311,242.377 102.246 C 243.627 96.544,243.390 78.117,241.980 71.361 C 235.057 38.173,217.667 22.870,191.824 27.224 " stroke="none" fill="#feaa26" fill-rule="evenodd"></path><path id="path7" d="M254.785 218.800 C 254.785 262.800,254.882 280.917,255.000 259.061 C 255.118 237.204,255.118 201.204,255.000 179.061 C 254.882 156.917,254.785 174.800,254.785 218.800 M120.986 143.200 C 120.986 144.740,121.150 145.370,121.351 144.600 C 121.553 143.830,121.553 142.570,121.351 141.800 C 121.150 141.030,120.986 141.660,120.986 143.200 M120.202 198.000 C 120.211 199.760,120.374 200.386,120.566 199.391 C 120.757 198.396,120.750 196.956,120.550 196.191 C 120.349 195.426,120.193 196.240,120.202 198.000 M41.126 218.400 C 41.126 225.660,41.247 228.630,41.395 225.000 C 41.543 221.370,41.543 215.430,41.395 211.800 C 41.247 208.170,41.126 211.140,41.126 218.400 M71.526 220.000 C 71.526 227.260,71.647 230.230,71.795 226.600 C 71.943 222.970,71.943 217.030,71.795 213.400 C 71.647 209.770,71.526 212.740,71.526 220.000 M121.103 218.400 C 121.103 223.460,121.232 225.530,121.391 223.000 C 121.550 220.470,121.550 216.330,121.391 213.800 C 121.232 211.270,121.103 213.340,121.103 218.400 M120.202 237.200 C 120.211 238.960,120.374 239.586,120.566 238.591 C 120.757 237.596,120.750 236.156,120.550 235.391 C 120.349 234.626,120.193 235.440,120.202 237.200 M115.157 298.200 L 112.400 301.200 115.400 298.443 C 117.050 296.927,118.400 295.577,118.400 295.443 C 118.400 294.832,117.723 295.408,115.157 298.200 " stroke="none" fill="#ffbd91" fill-rule="evenodd"></path><path id="path8" d="M112.000 137.850 C 112.000 137.988,113.170 139.158,114.600 140.450 L 117.200 142.800 114.850 140.200 C 112.660 137.776,112.000 137.232,112.000 137.850 M281.818 144.800 C 281.818 146.780,281.974 147.590,282.165 146.600 C 282.355 145.610,282.355 143.990,282.165 143.000 C 281.974 142.010,281.818 142.820,281.818 144.800 M281.978 241.600 C 281.978 271.300,282.078 283.450,282.200 268.600 C 282.322 253.750,282.322 229.450,282.200 214.600 C 282.078 199.750,281.978 211.900,281.978 241.600 M121.040 205.600 C 121.040 208.020,121.190 209.010,121.373 207.800 C 121.556 206.590,121.556 204.610,121.373 203.400 C 121.190 202.190,121.040 203.180,121.040 205.600 M121.018 230.400 C 121.018 232.380,121.174 233.190,121.365 232.200 C 121.555 231.210,121.555 229.590,121.365 228.600 C 121.174 227.610,121.018 228.420,121.018 230.400 M133.800 309.351 C 134.570 309.553,135.830 309.553,136.600 309.351 C 137.370 309.150,136.740 308.986,135.200 308.986 C 133.660 308.986,133.030 309.150,133.800 309.351 " stroke="none" fill="#ffcaa7" fill-rule="evenodd"></path><path id="path9" d="M82.624 128.589 C 84.727 128.754,87.967 128.752,89.824 128.585 C 91.681 128.417,89.960 128.282,86.000 128.284 C 82.040 128.286,80.521 128.424,82.624 128.589 M133.409 128.566 C 134.404 128.757,135.844 128.750,136.609 128.550 C 137.374 128.349,136.560 128.193,134.800 128.202 C 133.040 128.211,132.414 128.374,133.409 128.566 M264.842 128.757 C 264.092 129.231,264.940 129.330,267.242 129.035 C 269.199 128.785,270.950 128.449,271.133 128.290 C 271.884 127.637,265.911 128.081,264.842 128.757 M322.000 128.405 C 323.770 129.022,332.744 129.259,331.807 128.664 C 331.253 128.312,328.640 128.047,326.000 128.075 C 323.360 128.103,321.560 128.252,322.000 128.405 M308.112 131.318 C 306.634 131.743,305.574 132.241,305.757 132.424 C 306.161 132.828,312.000 131.274,312.000 130.762 C 312.000 130.291,311.365 130.382,308.112 131.318 M337.481 133.200 C 338.800 134.960,340.037 137.300,340.230 138.400 L 340.582 140.400 340.691 138.333 C 340.762 136.980,339.813 135.185,337.942 133.133 L 335.084 130.000 337.481 133.200 M63.139 138.200 L 61.200 140.400 63.600 138.400 C 64.920 137.300,66.150 136.310,66.333 136.200 C 66.517 136.090,66.309 136.000,65.873 136.000 C 65.436 136.000,64.206 136.990,63.139 138.200 M280.780 139.837 L 281.166 143.600 281.438 140.495 C 281.587 138.787,281.413 137.093,281.052 136.732 C 280.690 136.370,280.568 137.768,280.780 139.837 M293.000 139.147 C 291.218 140.438,289.506 141.904,289.197 142.405 C 288.764 143.106,295.024 138.708,296.733 137.111 C 297.973 135.953,295.693 137.196,293.000 139.147 M121.751 142.200 C 121.601 147.183,121.184 147.915,119.357 146.403 C 118.828 145.964,118.933 146.219,119.591 146.969 C 121.515 149.159,122.522 147.205,122.195 141.917 L 121.903 137.200 121.751 142.200 M148.385 218.800 C 148.385 262.800,148.482 280.917,148.600 259.061 C 148.718 237.204,148.718 201.204,148.600 179.061 C 148.482 156.917,148.385 174.800,148.385 218.800 M255.585 218.800 C 255.585 262.800,255.682 280.917,255.800 259.061 C 255.918 237.204,255.918 201.204,255.800 179.061 C 255.682 156.917,255.585 174.800,255.585 218.800 M284.160 147.360 C 283.632 147.888,283.200 148.788,283.200 149.360 C 283.200 150.801,281.801 150.669,281.340 149.184 C 281.053 148.261,280.991 148.293,281.081 149.318 C 281.286 151.642,282.990 151.386,284.260 148.840 C 285.600 146.154,285.586 145.934,284.160 147.360 M316.200 154.993 C 319.170 155.147,324.030 155.147,327.000 154.993 C 329.970 154.839,327.540 154.713,321.600 154.713 C 315.660 154.713,313.230 154.839,316.200 154.993 M44.986 176.000 C 44.986 177.540,45.150 178.170,45.351 177.400 C 45.553 176.630,45.553 175.370,45.351 174.600 C 45.150 173.830,44.986 174.460,44.986 176.000 M283.611 178.898 C 282.945 180.491,282.442 182.561,282.493 183.498 C 282.580 185.104,282.606 185.110,282.941 183.600 C 283.136 182.720,283.812 180.650,284.442 179.000 C 285.910 175.154,285.211 175.068,283.611 178.898 M43.429 186.000 C 43.435 188.200,43.590 189.005,43.774 187.789 C 43.958 186.573,43.953 184.773,43.763 183.789 C 43.573 182.805,43.423 183.800,43.429 186.000 M73.002 185.200 C 73.011 186.960,73.174 187.586,73.366 186.591 C 73.557 185.596,73.550 184.156,73.350 183.391 C 73.149 182.626,72.993 183.440,73.002 185.200 M120.240 188.000 C 120.240 190.420,120.390 191.410,120.573 190.200 C 120.756 188.990,120.756 187.010,120.573 185.800 C 120.390 184.590,120.240 185.580,120.240 188.000 M71.463 198.000 C 71.466 201.080,71.611 202.242,71.784 200.582 C 71.957 198.922,71.954 196.402,71.777 194.982 C 71.601 193.562,71.459 194.920,71.463 198.000 M121.018 198.400 C 121.018 200.380,121.174 201.190,121.365 200.200 C 121.555 199.210,121.555 197.590,121.365 196.600 C 121.174 195.610,121.018 196.420,121.018 198.400 M41.952 218.800 C 41.952 231.120,42.063 236.048,42.198 229.752 C 42.334 223.455,42.333 213.375,42.198 207.352 C 42.062 201.328,41.951 206.480,41.952 218.800 M70.724 219.600 C 70.725 226.640,70.847 229.413,70.996 225.762 C 71.144 222.111,71.144 216.351,70.994 212.962 C 70.844 209.573,70.723 212.560,70.724 219.600 M121.913 218.400 C 121.913 224.340,122.039 226.770,122.193 223.800 C 122.347 220.830,122.347 215.970,122.193 213.000 C 122.039 210.030,121.913 212.460,121.913 218.400 M121.002 236.400 C 121.011 238.160,121.174 238.786,121.366 237.791 C 121.557 236.796,121.550 235.356,121.350 234.591 C 121.149 233.826,120.993 234.640,121.002 236.400 M71.469 241.600 C 71.469 244.900,71.610 246.250,71.783 244.600 C 71.955 242.950,71.955 240.250,71.783 238.600 C 71.610 236.950,71.469 238.300,71.469 241.600 M120.248 246.800 C 120.252 249.440,120.402 250.424,120.580 248.986 C 120.758 247.548,120.754 245.388,120.572 244.186 C 120.389 242.984,120.243 244.160,120.248 246.800 M43.429 251.600 C 43.435 253.800,43.590 254.605,43.774 253.389 C 43.958 252.173,43.953 250.373,43.763 249.389 C 43.573 248.405,43.423 249.400,43.429 251.600 M73.002 254.800 C 73.011 256.560,73.174 257.186,73.366 256.191 C 73.557 255.196,73.550 253.756,73.350 252.991 C 73.149 252.226,72.993 253.040,73.002 254.800 M46.088 266.800 C 46.746 269.742,47.204 270.380,47.188 268.333 C 47.181 267.490,46.810 266.260,46.363 265.600 C 45.770 264.724,45.696 265.047,46.088 266.800 M94.611 286.974 C 95.827 287.158,97.627 287.153,98.611 286.963 C 99.595 286.773,98.600 286.623,96.400 286.629 C 94.200 286.635,93.395 286.790,94.611 286.974 M115.992 296.020 C 113.567 298.649,111.806 300.800,112.078 300.800 C 112.349 300.800,114.568 298.640,117.008 296.000 C 119.447 293.360,121.209 291.209,120.922 291.220 C 120.635 291.231,118.416 293.391,115.992 296.020 M121.829 296.400 C 121.835 298.600,121.990 299.405,122.174 298.189 C 122.358 296.973,122.353 295.173,122.163 294.189 C 121.973 293.205,121.823 294.200,121.829 296.400 M62.800 298.400 C 64.519 300.160,66.105 301.600,66.325 301.600 C 66.545 301.600,65.319 300.160,63.600 298.400 C 61.881 296.640,60.295 295.200,60.075 295.200 C 59.855 295.200,61.081 296.640,62.800 298.400 M280.986 297.600 C 280.986 299.140,281.150 299.770,281.351 299.000 C 281.553 298.230,281.553 296.970,281.351 296.200 C 281.150 295.430,280.986 296.060,280.986 297.600 M143.200 305.720 C 141.660 307.071,141.124 307.809,142.009 307.362 C 143.470 306.623,147.094 303.155,146.324 303.233 C 146.146 303.250,144.740 304.370,143.200 305.720 M129.483 308.203 C 129.886 308.606,131.067 308.802,132.108 308.638 C 133.709 308.386,133.596 308.273,131.375 307.905 C 129.785 307.641,129.039 307.759,129.483 308.203 M91.809 308.566 C 92.804 308.757,94.244 308.750,95.009 308.550 C 95.774 308.349,94.960 308.193,93.200 308.202 C 91.440 308.211,90.814 308.374,91.809 308.566 M84.609 309.366 C 85.604 309.557,87.044 309.550,87.809 309.350 C 88.574 309.149,87.760 308.993,86.000 309.002 C 84.240 309.011,83.614 309.174,84.609 309.366 " stroke="none" fill="#ffe0cc" fill-rule="evenodd"></path></g></svg>